<svg fill-rule="evenodd" height="188pt" image-rendering="optimizeQuality" shape-rendering="geometricPrecision" text-rendering="geometricPrecision" viewBox="0 0 8268 11692" width="280pt" xmlns="http://www.w3.org/2000/svg"><path d="m2720 6184 753-497 165 385 583-385 163 385 584-385 241 567-156 69-161-385-586 385-163-385-581 385-164-385-586 385zm1-1037 753-498 165 385 584-385 163 385 583-385 241 567-156 69-161-385-587 385-163-385-581 385-162-385-586 385z" transform="matrix(6.99342 0 0 6.984468 -23594.91 -32470.79)"/></svg>