<svg fill-rule="evenodd" height="188pt" image-rendering="optimizeQuality" shape-rendering="geometricPrecision" text-rendering="geometricPrecision" viewBox="0 0 8268 11692" width="171pt" xmlns="http://www.w3.org/2000/svg"><path d="m2889 6489v-1432c0-238-56-431-169-575h216c76 116 127 247 154 395 64-158 143-289 236-395l194-39c91 106 148 258 173 455 49-141 130-280 242-416l198-39c108 146 162 319 162 519v1250c0 131 5 220 13 266 10 47 30 87 62 122 57 60 153 90 287 90h123v-201l318 287-318 276v-195h-184c-176 0-303-46-382-138-80-93-120-240-120-443v-1209c0-204-29-350-88-439-150 173-255 389-313 649v1212h-201v-1351c0-243-29-413-88-510-144 162-248 364-314 604v1257z" transform="matrix(4.472138 0 0 4.481411 -13347.59 -19910.91)"/></svg>